<svg width="122" height="40" viewBox="0 0 122 40" fill="none" xmlns="http://www.w3.org/2000/svg">
<path d="M61.5165 13.7108H58.8126C58.7591 13.7108 58.7158 13.7544 58.7158 13.8081V21.5C58.7158 23.1108 57.4161 24.4209 55.8187 24.4209C54.221 24.4209 52.9215 23.1108 52.9215 21.5V13.8081C52.9215 13.7544 52.8783 13.7108 52.8247 13.7108H50.1208C50.0673 13.7108 50.0241 13.7544 50.0241 13.8081V21.5C50.0241 24.7213 52.6235 27.3421 55.8187 27.3421C59.0138 27.3421 61.613 24.7213 61.613 21.5V13.8081C61.613 13.7544 61.5697 13.7108 61.5165 13.7108Z" fill="#1D253B"/>
<path d="M76.582 13.7108C73.3869 13.7108 70.7874 16.3316 70.7874 19.5526V27.2445C70.7874 27.2984 70.8307 27.3421 70.8842 27.3421H73.5881C73.6416 27.3421 73.6849 27.2984 73.6849 27.2445V19.5526C73.6849 17.9421 74.9846 16.6317 76.582 16.6317C78.1795 16.6317 79.4792 17.9421 79.4792 19.5526V27.2445C79.4792 27.2984 79.5225 27.3421 79.5757 27.3421H82.2799C82.3334 27.3421 82.3766 27.2984 82.3766 27.2445V19.5526C82.3766 16.3316 79.7772 13.7108 76.582 13.7108Z" fill="#1D253B"/>
<path d="M102.078 24.9078H94.5515C94.5105 24.9078 94.4883 24.8596 94.5145 24.828L101.669 16.172C101.684 16.1545 101.692 16.1324 101.692 16.1095V13.8081C101.692 13.7544 101.648 13.7108 101.595 13.7108H91.6478C91.5946 13.7108 91.5513 13.7544 91.5513 13.8081V16.0475C91.5513 16.1012 91.5946 16.1448 91.6478 16.1448H98.2085C98.2495 16.1448 98.2717 16.193 98.2455 16.2248L91.0909 24.8808C91.0763 24.8983 91.0684 24.9201 91.0684 24.9431V27.2445C91.0684 27.2984 91.1116 27.3421 91.1648 27.3421H102.078C102.131 27.3421 102.174 27.2984 102.174 27.2445V25.005C102.174 24.9514 102.131 24.9078 102.078 24.9078Z" fill="#1D253B"/>
<path d="M120.912 24.9058H113.385C113.344 24.9058 113.322 24.8576 113.348 24.826L120.503 16.1701C120.517 16.1526 120.525 16.1305 120.525 16.1075V13.8061C120.525 13.7524 120.482 13.7088 120.429 13.7088H110.482C110.428 13.7088 110.385 13.7524 110.385 13.8061V16.0455C110.385 16.0992 110.428 16.1428 110.482 16.1428H117.042C117.083 16.1428 117.106 16.191 117.079 16.2226L109.925 24.8788C109.91 24.8963 109.902 24.9181 109.902 24.9411V27.2425C109.902 27.2965 109.945 27.3401 109.999 27.3401H120.912C120.965 27.3401 121.008 27.2965 121.008 27.2425V25.0031C121.008 24.9494 120.965 24.9058 120.912 24.9058Z" fill="#1D253B"/>
<path d="M37.9482 23.208C37.9946 23.8625 37.6514 24.4602 37.0762 24.7454C37.0702 24.7482 37.0645 24.7517 37.0594 24.7557L36.9868 24.7864C36.7953 24.8667 36.5921 24.9078 36.3829 24.9078H32.6889C32.6624 24.9078 32.6408 24.886 32.6408 24.859V21.792C32.6408 21.7651 32.6624 21.7433 32.6889 21.7433H36.3829C36.6334 21.7433 36.8756 21.8021 37.0998 21.9177C37.5839 22.1673 37.9095 22.6614 37.9482 23.208ZM37.1041 19.1325C36.8787 19.2496 36.6351 19.3093 36.3832 19.3093H32.6889C32.6624 19.3093 32.6408 19.2875 32.6408 19.2605V16.1936C32.6408 16.1666 32.6624 16.1448 32.6889 16.1448H36.3829C36.5921 16.1448 36.7953 16.1855 36.9866 16.2661L37.0543 16.2945C37.0588 16.298 37.0637 16.3011 37.0691 16.3037C37.6457 16.5858 37.9912 17.1803 37.9488 17.8348C37.9132 18.3834 37.5888 18.8809 37.1041 19.1325ZM40.8496 17.6052C40.8496 15.4579 39.1167 13.7108 36.9866 13.7108H29.8401C29.7869 13.7108 29.7437 13.7541 29.7437 13.8081V27.2445C29.7437 27.2982 29.7869 27.3418 29.8401 27.3418H36.9866C39.1167 27.3418 40.8496 25.5947 40.8496 23.4473C40.8496 22.3309 40.3724 21.2661 39.5405 20.5261C40.3724 19.7864 40.8496 18.7217 40.8496 17.6052Z" fill="#1D253B"/>
<path d="M16.8477 12.7341L9.24276 14.7885C8.77603 14.9147 8.2962 14.6353 8.17127 14.165C8.04633 13.6945 8.32324 13.2107 8.78969 13.0847L16.3949 11.0303C16.8616 10.9041 17.3411 11.1833 17.4664 11.6538C17.5913 12.1244 17.3144 12.6082 16.8477 12.7341Z" fill="#1D253B"/>
<path d="M8.70655 12.7341L1.10165 14.7885C0.634921 14.9147 0.155097 14.6353 0.0301611 14.165C-0.0947753 13.6945 0.182134 13.2107 0.648582 13.0847L8.25376 11.0303C8.7205 10.9041 9.20004 11.1833 9.32526 11.6538C9.45019 12.1244 9.17328 12.6082 8.70655 12.7341Z" fill="#1D253B"/>
<path d="M16.8402 16.9092H8.95473C8.81898 16.9092 8.68494 16.941 8.56342 17.0021L5.54246 18.5251C5.35776 18.6184 5.14033 18.6184 4.95563 18.5251L1.93439 17.0021C1.81315 16.941 1.67911 16.9092 1.54336 16.9092H0.656283C0.293996 16.9092 0.000295466 16.6131 0.000295466 16.2478C0.000295466 15.8823 0.293996 15.5862 0.656283 15.5862H16.8402C17.2025 15.5862 17.4962 15.8823 17.4962 16.2478C17.4962 16.6131 17.2025 16.9092 16.8402 16.9092Z" fill="#1D253B"/>
<path d="M16.7964 21.5838H0.699814C0.313337 21.5838 0 21.2679 0 20.8782V18.7616C0 18.3716 0.313337 18.0557 0.699814 18.0557H1.54306C1.6791 18.0557 1.81286 18.0879 1.93438 18.149L4.95562 19.672C5.14032 19.7649 5.35747 19.7649 5.54217 19.672L8.56341 18.149C8.68493 18.0879 8.81897 18.0557 8.95472 18.0557H16.7964C17.1829 18.0557 17.4962 18.3716 17.4962 18.7616V20.8782C17.4962 21.2679 17.1829 21.5838 16.7964 21.5838Z" fill="#1D253B"/>
<path d="M16.6214 28.6396H0.874838C0.391599 28.6396 0 28.2448 0 27.7576V26.8756C0 26.3886 0.391599 25.9936 0.874838 25.9936H16.6214C17.1046 25.9936 17.4962 26.3886 17.4962 26.8756V27.7576C17.4962 28.2448 17.1046 28.6396 16.6214 28.6396Z" fill="#1D253B"/>
<path d="M15.0462 25.2828C14.4229 25.2828 13.7996 25.0435 13.3249 24.5652L12.6954 23.9305C12.4825 23.7156 12.1991 23.5974 11.898 23.5974C11.5966 23.5974 11.3134 23.7156 11.1003 23.9305L10.4707 24.5652C9.52163 25.5221 7.97743 25.5221 7.02859 24.5652L6.39879 23.9305C5.95881 23.4869 5.24334 23.4872 4.80365 23.9305L4.17413 24.5652C3.22501 25.5221 1.68081 25.5221 0.731688 24.5652L0.191247 24.0203C-0.0637489 23.7632 -0.0637489 23.3463 0.191247 23.0893C0.446242 22.8322 0.859755 22.8322 1.11475 23.0893L1.65548 23.6341C2.09517 24.0774 2.81064 24.0774 3.25034 23.6341L3.88014 22.9992C4.82926 22.0426 6.37346 22.0426 7.32229 22.9995L7.9521 23.6341C8.3918 24.0774 9.10726 24.0774 9.54724 23.6341L10.1768 22.9995C11.1259 22.0426 12.6698 22.0426 13.6189 22.9995L14.2487 23.6341C14.6884 24.0774 15.4039 24.0774 15.8436 23.6341L16.3815 23.0921C16.6365 22.835 17.05 22.835 17.305 23.0921C17.56 23.3492 17.56 23.7661 17.305 24.0232L16.7674 24.5652C16.2927 25.0435 15.6694 25.2828 15.0462 25.2828Z" fill="#1D253B"/>
</svg>
